<svg width="32" height="32" viewBox="0 0 32 32" fill="none" xmlns="http://www.w3.org/2000/svg">
<rect width="32" height="32" fill="black"/>
<path d="M8.91406 19.0156H10.6895C10.8262 19.0156 10.9434 19.0645 11.041 19.1621C11.1426 19.2559 11.1934 19.3711 11.1934 19.5078C11.1934 19.6445 11.1426 19.7617 11.041 19.8594C10.9434 19.9531 10.8262 20 10.6895 20H8.84961C8.61523 20 8.37305 19.9258 8.12305 19.7773C7.87305 19.6289 7.69922 19.4629 7.60156 19.2793L6.46484 17.082C6.3125 16.7656 6.23633 16.4414 6.23633 16.1094C6.23633 15.7422 6.30859 15.4238 6.45312 15.1543L7.60156 12.9805C7.71094 12.7773 7.88086 12.5996 8.11133 12.4473C8.3418 12.291 8.56445 12.2129 8.7793 12.2129H10.7246C10.8613 12.2129 10.9766 12.2617 11.0703 12.3594C11.168 12.457 11.2168 12.5723 11.2168 12.7051C11.2168 12.8418 11.168 12.9609 11.0703 13.0625C10.9766 13.1602 10.8613 13.209 10.7246 13.209H8.84961C8.69336 13.209 8.56641 13.3008 8.46875 13.4844L7.37891 15.5234C7.29297 15.6836 7.25 15.873 7.25 16.0918C7.25 16.3223 7.29688 16.5254 7.39062 16.7012L8.43359 18.7051C8.53125 18.9121 8.69141 19.0156 8.91406 19.0156ZM16.168 19.0156H17.9434C18.0801 19.0156 18.1973 19.0645 18.2949 19.1621C18.3965 19.2559 18.4473 19.3711 18.4473 19.5078C18.4473 19.6445 18.3965 19.7617 18.2949 19.8594C18.1973 19.9531 18.0801 20 17.9434 20H16.1035C15.8691 20 15.627 19.9258 15.377 19.7773C15.127 19.6289 14.9531 19.4629 14.8555 19.2793L13.7188 17.082C13.5664 16.7656 13.4902 16.4414 13.4902 16.1094C13.4902 15.7422 13.5625 15.4238 13.707 15.1543L14.8555 12.9805C14.9648 12.7773 15.1348 12.5996 15.3652 12.4473C15.5957 12.291 15.8184 12.2129 16.0332 12.2129H17.9785C18.1152 12.2129 18.2305 12.2617 18.3242 12.3594C18.4219 12.457 18.4707 12.5723 18.4707 12.7051C18.4707 12.8418 18.4219 12.9609 18.3242 13.0625C18.2305 13.1602 18.1152 13.209 17.9785 13.209H16.1035C15.9473 13.209 15.8203 13.3008 15.7227 13.4844L14.6328 15.5234C14.5469 15.6836 14.5039 15.873 14.5039 16.0918C14.5039 16.3223 14.5508 16.5254 14.6445 16.7012L15.6875 18.7051C15.7852 18.9121 15.9453 19.0156 16.168 19.0156ZM23.4219 19.0156H25.1973C25.334 19.0156 25.4512 19.0645 25.5488 19.1621C25.6504 19.2559 25.7012 19.3711 25.7012 19.5078C25.7012 19.6445 25.6504 19.7617 25.5488 19.8594C25.4512 19.9531 25.334 20 25.1973 20H23.3574C23.123 20 22.8809 19.9258 22.6309 19.7773C22.3809 19.6289 22.207 19.4629 22.1094 19.2793L20.9727 17.082C20.8203 16.7656 20.7441 16.4414 20.7441 16.1094C20.7441 15.7422 20.8164 15.4238 20.9609 15.1543L22.1094 12.9805C22.2188 12.7773 22.3887 12.5996 22.6191 12.4473C22.8496 12.291 23.0723 12.2129 23.2871 12.2129H25.2324C25.3691 12.2129 25.4844 12.2617 25.5781 12.3594C25.6758 12.457 25.7246 12.5723 25.7246 12.7051C25.7246 12.8418 25.6758 12.9609 25.5781 13.0625C25.4844 13.1602 25.3691 13.209 25.2324 13.209H23.3574C23.2012 13.209 23.0742 13.3008 22.9766 13.4844L21.8867 15.5234C21.8008 15.6836 21.7578 15.873 21.7578 16.0918C21.7578 16.3223 21.8047 16.5254 21.8984 16.7012L22.9414 18.7051C23.0391 18.9121 23.1992 19.0156 23.4219 19.0156Z" fill="white"/>
</svg>
